# xmcd
#
# Track frame offsets: 
#        150
#        14475
#        33122
#        53230
#        72890
#        92500
#        106540
#        128242
#        147555
#        164370
#        181090
#        195565
#        221550
#
# Disc length: 3417 seconds
#
# Revision: 3
# Processed by: cddbd v1.5.2PL0 Copyright (c) Steve Scherf et al.
# Submitted via: ExactAudioCopy v0.99pb4
#
DISCID=ac0d570d
DTITLE=Tab Benoit - Wetlands
DYEAR=2002
DGENRE=Blues
TTITLE0=Fast and Free
TTITLE1=Stackolina
TTITLE2=I Got Loaded
TTITLE3=Muddy Bottom Blues
TTITLE4=When a Cajun Man Gets the Blues
TTITLE5=Too Sweet For Me
TTITLE6=Down in the Swamp
TTITLE7=These Arms of Mine
TTITLE8=Dog Hill
TTITLE9=Her Mind is Gone
TTITLE10=Loves Lips
TTITLE11=Let LoveTake Control
TTITLE12=Georgia
EXTD=
EXTT0=
EXTT1=
EXTT2=
EXTT3=
EXTT4=
EXTT5=
EXTT6=
EXTT7=
EXTT8=
EXTT9=
EXTT10=
EXTT11=
EXTT12=
PLAYORDER=
